<svg width="40" height="40" viewBox="0 0 40 40" fill="none" xmlns="http://www.w3.org/2000/svg">
<path d="M33.3334 5.83334H6.66669C5.3406 5.83334 4.06883 6.36013 3.13115 7.29781C2.19347 8.23549 1.66669 9.50726 1.66669 10.8333V32.5C1.66669 32.942 1.84228 33.366 2.15484 33.6785C2.4674 33.9911 2.89133 34.1667 3.33335 34.1667H10C10.2745 34.1653 10.5444 34.0961 10.7858 33.9652C11.0271 33.8344 11.2324 33.6459 11.3834 33.4167L14.2334 29.1667H25.7667L28.6167 33.4167C28.7677 33.6459 28.9729 33.8344 29.2143 33.9652C29.4556 34.0961 29.7255 34.1653 30 34.1667H36.6667C37.1087 34.1667 37.5326 33.9911 37.8452 33.6785C38.1578 33.366 38.3334 32.942 38.3334 32.5V10.8333C38.3334 9.50726 37.8066 8.23549 36.8689 7.29781C35.9312 6.36013 34.6594 5.83334 33.3334 5.83334ZM35 30.8333H30.9L28.05 26.6667C27.909 26.4219 27.708 26.217 27.466 26.0713C27.224 25.9255 26.949 25.8436 26.6667 25.8333H13.3334C13.0588 25.8348 12.7889 25.904 12.5476 26.0348C12.3063 26.1657 12.101 26.3541 11.95 26.5833L9.10002 30.8333H5.00002V22.5H35V30.8333ZM11.6667 19.1667V17.5C11.6667 17.058 11.8423 16.6341 12.1548 16.3215C12.4674 16.0089 12.8913 15.8333 13.3334 15.8333H16.6667C17.1087 15.8333 17.5326 16.0089 17.8452 16.3215C18.1578 16.6341 18.3334 17.058 18.3334 17.5V19.1667H11.6667ZM21.6667 19.1667V17.5C21.6667 17.058 21.8423 16.6341 22.1548 16.3215C22.4674 16.0089 22.8913 15.8333 23.3334 15.8333H26.6667C27.1087 15.8333 27.5326 16.0089 27.8452 16.3215C28.1578 16.6341 28.3334 17.058 28.3334 17.5V19.1667H21.6667ZM35 19.1667H31.6667V17.5C31.6667 16.1739 31.1399 14.9022 30.2022 13.9645C29.2645 13.0268 27.9928 12.5 26.6667 12.5H23.3334C22.0999 12.5074 20.9127 12.9704 20 13.8C19.0873 12.9704 17.9001 12.5074 16.6667 12.5H13.3334C12.0073 12.5 10.7355 13.0268 9.79782 13.9645C8.86014 14.9022 8.33335 16.1739 8.33335 17.5V19.1667H5.00002V10.8333C5.00002 10.3913 5.17561 9.96739 5.48818 9.65483C5.80074 9.34227 6.22466 9.16668 6.66669 9.16668H33.3334C33.7754 9.16668 34.1993 9.34227 34.5119 9.65483C34.8244 9.96739 35 10.3913 35 10.8333V19.1667Z" fill="#1A1A1A"/>
</svg>
