<svg width="40" height="40" viewBox="0 0 40 40" fill="none" xmlns="http://www.w3.org/2000/svg">
<path d="M35.2 4.8C34.2462 3.89499 32.9815 3.39046 31.6667 3.39046C30.3519 3.39046 29.0872 3.89499 28.1334 4.8L24.1 8.81667C23.3747 9.55026 22.8941 10.4902 22.724 11.5077C22.5539 12.5252 22.7027 13.5704 23.15 14.5L19.5667 18.0833L16.2334 14.75C15.632 14.1342 14.8819 13.684 14.0556 13.4431C13.2293 13.2021 12.3548 13.1785 11.5167 13.3747C10.6786 13.5708 9.90537 13.9799 9.27176 14.5625C8.63815 15.145 8.16566 15.8813 7.90002 16.7L3.46669 30.0333C3.17207 30.9135 3.12828 31.8584 3.34021 32.762C3.55215 33.6657 4.01145 34.4926 4.66669 35.15C5.14201 35.6396 5.71254 36.0268 6.34313 36.2876C6.97372 36.5485 7.65103 36.6775 8.33336 36.6667C8.90033 36.6773 9.46467 36.587 10 36.4L23.3334 31.9667C24.1521 31.701 24.8883 31.2285 25.4709 30.5949C26.0534 29.9613 26.4626 29.1881 26.6587 28.35C26.8548 27.5119 26.8313 26.6374 26.5903 25.8111C26.3494 24.9848 25.8992 24.2347 25.2834 23.6333L21.95 20.3L25.5334 16.7167C26.4629 17.164 27.5081 17.3128 28.5256 17.1427C29.5431 16.9726 30.4831 16.492 31.2167 15.7667L35.2334 11.7333C36.1252 10.7975 36.6198 9.55264 36.6136 8.25995C36.6074 6.96726 36.1008 5.72722 35.2 4.8ZM22.8334 26.05C23.0317 26.2521 23.1753 26.5014 23.2506 26.7743C23.3259 27.0473 23.3304 27.3349 23.2636 27.6101C23.1969 27.8853 23.0612 28.139 22.8693 28.3471C22.6774 28.5553 22.4356 28.7112 22.1667 28.8L8.86669 33.3333C8.57723 33.4218 8.26916 33.4297 7.97553 33.3563C7.68191 33.2829 7.41381 33.1309 7.20002 32.9167C6.98579 32.7029 6.83381 32.4348 6.7604 32.1412C6.687 31.8475 6.69493 31.5395 6.78336 31.25L11.2334 17.9167C11.2968 17.6224 11.4388 17.3507 11.6442 17.1307C11.8496 16.9106 12.1108 16.7502 12.4 16.6667C12.5274 16.6529 12.6559 16.6529 12.7834 16.6667C13.2206 16.6685 13.6396 16.8421 13.95 17.15L17.2834 20.4833L15.8334 21.9167C15.6771 22.0716 15.5532 22.2559 15.4685 22.459C15.3839 22.6621 15.3404 22.88 15.3404 23.1C15.3404 23.32 15.3839 23.5379 15.4685 23.741C15.5532 23.9441 15.6771 24.1284 15.8334 24.2833C15.9883 24.4395 16.1726 24.5635 16.3757 24.6482C16.5788 24.7328 16.7967 24.7763 17.0167 24.7763C17.2367 24.7763 17.4546 24.7328 17.6577 24.6482C17.8607 24.5635 18.0451 24.4395 18.2 24.2833L19.6334 22.8333L22.8334 26.05ZM32.8334 9.51667L28.8167 13.5333C28.5827 13.7627 28.2863 13.918 27.9646 13.9798C27.6429 14.0417 27.31 14.0073 27.0077 13.881C26.7054 13.7548 26.447 13.5422 26.2648 13.2699C26.0826 12.9976 25.9847 12.6776 25.9834 12.35C25.9852 11.9128 26.1588 11.4938 26.4667 11.1833L30.4834 7.15C30.6383 6.99379 30.8226 6.8698 31.0257 6.78518C31.2288 6.70057 31.4467 6.657 31.6667 6.657C31.8867 6.657 32.1046 6.70057 32.3076 6.78518C32.5107 6.8698 32.6951 6.99379 32.85 7.15C33.0062 7.30494 33.1302 7.48927 33.2148 7.69237C33.2995 7.89547 33.343 8.11331 33.343 8.33333C33.343 8.55335 33.2995 8.7712 33.2148 8.97429C33.1302 9.17739 33.0062 9.36173 32.85 9.51667H32.8334Z" fill="#1A1A1A"/>
</svg>
